<svg width="152" height="152" viewBox="0 0 152 152" fill="none" xmlns="http://www.w3.org/2000/svg">
<g clip-path="url(#clip0_600_511)">
<rect width="152" height="152" rx="76" fill="url(#paint0_linear_600_511)"/>
<g filter="url(#filter0_d_600_511)">
<mask id="path-2-outside-1_600_511" maskUnits="userSpaceOnUse" x="53.9472" y="39.6366" width="55.8979" height="70.475" fill="black">
<rect fill="white" x="53.9472" y="39.6366" width="55.8979" height="70.475"/>
<path d="M54.8667 107.635L56.7301 40.653L88.3978 41.534C91.5326 41.6212 94.3324 42.2433 96.7972 43.4002C99.2637 44.4933 101.335 45.9914 103.011 47.8948C104.75 49.7999 106.063 52.1093 106.947 54.8229C107.834 57.4726 108.234 60.3648 108.147 63.4996C108.058 66.6984 107.497 69.5959 106.464 72.1922C105.432 74.7885 103.994 76.9894 102.151 78.7948C100.372 80.602 98.2199 82.0147 95.6946 83.0329C93.1711 83.9871 90.3419 84.4206 87.2071 84.3334L70.1258 83.8582L69.453 108.041L54.8667 107.635ZM70.4781 71.1911L85.8322 71.6182C88.0074 71.6788 89.7178 71.1821 90.9636 70.1284C92.2752 69.0124 92.9612 67.3668 93.0217 65.1917L93.1392 60.9693C93.1997 58.7942 92.6053 57.145 91.3561 56.0218C90.1726 54.8364 88.4932 54.2135 86.3181 54.153L70.964 53.7259L70.4781 71.1911Z"/>
</mask>
<path d="M54.8667 107.635L56.7301 40.653L88.3978 41.534C91.5326 41.6212 94.3324 42.2433 96.7972 43.4002C99.2637 44.4933 101.335 45.9914 103.011 47.8948C104.75 49.7999 106.063 52.1093 106.947 54.8229C107.834 57.4726 108.234 60.3648 108.147 63.4996C108.058 66.6984 107.497 69.5959 106.464 72.1922C105.432 74.7885 103.994 76.9894 102.151 78.7948C100.372 80.602 98.2199 82.0147 95.6946 83.0329C93.1711 83.9871 90.3419 84.4206 87.2071 84.3334L70.1258 83.8582L69.453 108.041L54.8667 107.635ZM70.4781 71.1911L85.8322 71.6182C88.0074 71.6788 89.7178 71.1821 90.9636 70.1284C92.2752 69.0124 92.9612 67.3668 93.0217 65.1917L93.1392 60.9693C93.1997 58.7942 92.6053 57.145 91.3561 56.0218C90.1726 54.8364 88.4932 54.2135 86.3181 54.153L70.964 53.7259L70.4781 71.1911Z" fill="#FF8E3C"/>
<path d="M54.8667 107.635L54.3668 107.621L54.3529 108.121L54.8527 108.135L54.8667 107.635ZM56.7301 40.653L56.744 40.1532L56.2442 40.1393L56.2302 40.6391L56.7301 40.653ZM96.7972 43.4002L96.5846 43.853L96.5946 43.8574L96.7972 43.4002ZM103.011 47.8948L102.635 48.2252L102.641 48.2319L103.011 47.8948ZM106.947 54.8229L106.472 54.9779L106.473 54.9816L106.947 54.8229ZM106.464 72.1922L106.929 72.377L106.929 72.377L106.464 72.1922ZM102.151 78.7948L101.801 78.4376L101.795 78.4441L102.151 78.7948ZM95.6946 83.0329L95.8715 83.5007L95.8816 83.4966L95.6946 83.0329ZM70.1258 83.8582L70.1397 83.3584L69.6399 83.3445L69.626 83.8443L70.1258 83.8582ZM69.453 108.041L69.4391 108.541L69.9389 108.555L69.9528 108.055L69.453 108.041ZM70.4781 71.1911L69.9783 71.1772L69.9644 71.677L70.4642 71.6909L70.4781 71.1911ZM90.9636 70.1284L91.2865 70.5101L91.2876 70.5092L90.9636 70.1284ZM91.3561 56.0218L91.0022 56.3751L91.0117 56.3846L91.0218 56.3936L91.3561 56.0218ZM70.964 53.7259L70.9779 53.226L70.4781 53.2121L70.4642 53.712L70.964 53.7259ZM55.3665 107.649L57.2299 40.6669L56.2302 40.6391L54.3668 107.621L55.3665 107.649ZM56.7161 41.1528L88.3839 42.0338L88.4117 41.0341L56.744 40.1532L56.7161 41.1528ZM88.3839 42.0338C91.4603 42.1193 94.1909 42.7292 96.5847 43.8529L97.0096 42.9476C94.4739 41.7573 91.6049 41.123 88.4117 41.0341L88.3839 42.0338ZM96.5946 43.8574C98.9994 44.923 101.01 46.3795 102.635 48.2252L103.386 47.5644C101.659 45.6034 99.528 44.0635 96.9997 42.9431L96.5946 43.8574ZM102.641 48.2319C104.328 50.0792 105.607 52.3246 106.472 54.9779L107.423 54.6679C106.518 51.8939 105.172 49.5206 103.38 47.5576L102.641 48.2319ZM106.473 54.9816C107.339 57.5693 107.733 60.4024 107.647 63.4857L108.646 63.5135C108.735 60.3273 108.329 57.3759 107.422 54.6643L106.473 54.9816ZM107.647 63.4857C107.559 66.6343 107.008 69.4729 106 72.0074L106.929 72.377C107.986 69.719 108.556 66.7625 108.646 63.5135L107.647 63.4857ZM106 72.0074C104.991 74.5443 103.59 76.685 101.801 78.4377L102.501 79.152C104.398 77.2938 105.873 75.0327 106.929 72.377L106 72.0074ZM101.795 78.4441C100.067 80.1989 97.9741 81.5747 95.5076 82.5692L95.8816 83.4966C98.4657 82.4547 100.677 81.0052 102.507 79.1456L101.795 78.4441ZM95.5178 82.5652C93.0642 83.493 90.3012 83.9193 87.2211 83.8336L87.1932 84.8332C90.3827 84.9219 93.278 84.4812 95.8714 83.5006L95.5178 82.5652ZM87.2211 83.8336L70.1397 83.3584L70.1119 84.358L87.1932 84.8332L87.2211 83.8336ZM69.626 83.8443L68.9532 108.027L69.9528 108.055L70.6256 83.8721L69.626 83.8443ZM69.4669 107.541L54.8806 107.135L54.8527 108.135L69.4391 108.541L69.4669 107.541ZM70.4642 71.6909L85.8183 72.118L85.8461 71.1184L70.4921 70.6913L70.4642 71.6909ZM85.8183 72.118C88.0747 72.1808 89.9192 71.6667 91.2865 70.5101L90.6407 69.7466C89.5164 70.6976 87.94 71.1767 85.8461 71.1184L85.8183 72.118ZM91.2876 70.5092C92.7342 69.2783 93.4582 67.4825 93.5215 65.2056L92.5219 65.1778C92.4642 67.2512 91.8161 68.7465 90.6396 69.7476L91.2876 70.5092ZM93.5215 65.2056L93.639 60.9832L92.6394 60.9554L92.5219 65.1778L93.5215 65.2056ZM93.639 60.9832C93.7023 58.7078 93.079 56.8985 91.6904 55.65L91.0218 56.3936C92.1316 57.3914 92.6971 58.8805 92.6394 60.9554L93.639 60.9832ZM91.7099 55.6685C90.4115 54.3681 88.5955 53.7162 86.332 53.6532L86.3042 54.6528C88.391 54.7109 89.9337 55.3048 91.0022 56.3751L91.7099 55.6685ZM86.332 53.6532L70.9779 53.226L70.9501 54.2257L86.3042 54.6528L86.332 53.6532ZM70.4642 53.712L69.9783 71.1772L70.978 71.205L71.4638 53.7398L70.4642 53.712Z" fill="white" mask="url(#path-2-outside-1_600_511)"/>
</g>
<g filter="url(#filter1_d_600_511)">
<path d="M51.892 106V38.992H83.572C86.708 38.992 89.524 39.536 92.02 40.624C94.516 41.648 96.628 43.088 98.356 44.944C100.148 46.8 101.524 49.072 102.484 51.76C103.444 54.384 103.924 57.264 103.924 60.4C103.924 63.6 103.444 66.512 102.484 69.136C101.524 71.76 100.148 74 98.356 75.856C96.628 77.712 94.516 79.184 92.02 80.272C89.524 81.296 86.708 81.808 83.572 81.808H66.484V106H51.892ZM66.484 69.136H81.844C84.02 69.136 85.716 68.592 86.932 67.504C88.212 66.352 88.852 64.688 88.852 62.512V58.288C88.852 56.112 88.212 54.48 86.932 53.392C85.716 52.24 84.02 51.664 81.844 51.664H66.484V69.136Z" fill="white"/>
</g>
<path d="M47.0486 97.9383C47.3474 97.0157 48.6526 97.0157 48.9514 97.9383L49.7498 100.404C49.8392 100.681 50.0443 100.904 50.3117 101.017L52.8221 102.079C53.6361 102.423 53.6361 103.577 52.8221 103.921L50.3117 104.983C50.0443 105.096 49.8392 105.319 49.7498 105.596L48.9514 108.062C48.6526 108.984 47.3474 108.984 47.0486 108.062L46.2502 105.596C46.1608 105.319 45.9557 105.096 45.6883 104.983L43.1779 103.921C42.3639 103.577 42.3639 102.423 43.1779 102.079L45.6883 101.017C45.9557 100.904 46.1608 100.681 46.2502 100.404L47.0486 97.9383Z" fill="white" fill-opacity="0.52"/>
<path d="M43.5486 31.9383C43.8474 31.0157 45.1526 31.0157 45.4514 31.9383L47.1951 37.324C47.2846 37.6002 47.4896 37.8239 47.757 37.937L52.8221 40.079C53.6361 40.4232 53.6361 41.5768 52.8221 41.921L47.757 44.063C47.4896 44.1761 47.2846 44.3998 47.1951 44.676L45.4514 50.0617C45.1526 50.9843 43.8474 50.9843 43.5486 50.0617L41.8049 44.676C41.7154 44.3998 41.5104 44.1761 41.243 44.063L36.1779 41.921C35.3639 41.5768 35.3639 40.4232 36.1779 40.079L41.243 37.937C41.5104 37.8239 41.7154 37.6002 41.8049 37.324L43.5486 31.9383Z" fill="#D50000" fill-opacity="0.47"/>
<path d="M116.047 75.0053C116.342 74.0751 117.658 74.0751 117.953 75.0053L120.103 81.7838C120.191 82.0601 120.394 82.2847 120.66 82.3996L126.873 85.0819C127.678 85.4294 127.678 86.5706 126.873 86.9181L120.66 89.6004C120.394 89.7153 120.191 89.9399 120.103 90.2162L117.953 96.9947C117.658 97.9249 116.342 97.9249 116.047 96.9947L113.897 90.2162C113.809 89.9399 113.606 89.7153 113.34 89.6004L107.127 86.9181C106.322 86.5706 106.322 85.4294 107.127 85.0819L113.34 82.3996C113.606 82.2847 113.809 82.0601 113.897 81.7838L116.047 75.0053Z" fill="#FFDC60"/>
<rect width="152" height="152" fill="url(#paint1_linear_600_511)"/>
</g>
<defs>
<filter id="filter0_d_600_511" x="50.8667" y="40.6531" width="61.8752" height="76.429" filterUnits="userSpaceOnUse" color-interpolation-filters="sRGB">
<feFlood flood-opacity="0" result="BackgroundImageFix"/>
<feColorMatrix in="SourceAlpha" type="matrix" values="0 0 0 0 0 0 0 0 0 0 0 0 0 0 0 0 0 0 127 0" result="hardAlpha"/>
<feOffset dy="4"/>
<feGaussianBlur stdDeviation="2"/>
<feComposite in2="hardAlpha" operator="out"/>
<feColorMatrix type="matrix" values="0 0 0 0 0 0 0 0 0 0 0 0 0 0 0 0 0 0 0.25 0"/>
<feBlend mode="normal" in2="BackgroundImageFix" result="effect1_dropShadow_600_511"/>
<feBlend mode="normal" in="SourceGraphic" in2="effect1_dropShadow_600_511" result="shape"/>
</filter>
<filter id="filter1_d_600_511" x="47.892" y="38.9919" width="60.032" height="75.0081" filterUnits="userSpaceOnUse" color-interpolation-filters="sRGB">
<feFlood flood-opacity="0" result="BackgroundImageFix"/>
<feColorMatrix in="SourceAlpha" type="matrix" values="0 0 0 0 0 0 0 0 0 0 0 0 0 0 0 0 0 0 127 0" result="hardAlpha"/>
<feOffset dy="4"/>
<feGaussianBlur stdDeviation="2"/>
<feComposite in2="hardAlpha" operator="out"/>
<feColorMatrix type="matrix" values="0 0 0 0 0 0 0 0 0 0 0 0 0 0 0 0 0 0 0.25 0"/>
<feBlend mode="normal" in2="BackgroundImageFix" result="effect1_dropShadow_600_511"/>
<feBlend mode="normal" in="SourceGraphic" in2="effect1_dropShadow_600_511" result="shape"/>
</filter>
<linearGradient id="paint0_linear_600_511" x1="0" y1="0" x2="152" y2="152" gradientUnits="userSpaceOnUse">
<stop stop-color="#FCDF77"/>
<stop offset="1" stop-color="#FF3D00"/>
</linearGradient>
<linearGradient id="paint1_linear_600_511" x1="76" y1="-15" x2="76" y2="158.5" gradientUnits="userSpaceOnUse">
<stop stop-color="white" stop-opacity="0.1"/>
<stop offset="1" stop-color="white" stop-opacity="0"/>
</linearGradient>
<clipPath id="clip0_600_511">
<rect width="152" height="152" rx="76" fill="white"/>
</clipPath>
</defs>
</svg>
